<svg xmlns="http://www.w3.org/2000/svg" viewBox="1378 1502.636 48.798 46.646"><defs><style>
      .cls-1 {
        fill: #efedee;
      }

      .cls-2 {
        fill: #d4d2d3;
      }

      .cls-3 {
        fill: #465059;
      }

      .cls-4 {
        fill: #bab8b9;
      }

      .cls-5 {
        fill: #da5b65;
      }

      .cls-6 {
        fill: #51d7f7;
      }

      .cls-7 {
        fill: #49c3e0;
      }
    </style></defs><g id="_009-job-search" data-name="009-job-search" transform="translate(1378 1502.636)"><path id="Path_72" data-name="Path 72" class="cls-1" d="M37.561,18.785H18.394L14.909,27.15,7.491,29.688V59.852A4.15,4.15,0,0,0,11.641,64h25.92a4.15,4.15,0,0,0,4.15-4.15V22.935A4.15,4.15,0,0,0,37.561,18.785Z" transform="translate(-6.777 -18.07)"></path><g id="Group_31" data-name="Group 31" transform="translate(0.714 0.715)"><path id="Path_73" data-name="Path 73" class="cls-2" d="M7.491,29.688h8.182a2.721,2.721,0,0,0,2.722-2.722V18.785Z" transform="translate(-7.491 -18.785)"></path><path id="Path_74" data-name="Path 74" class="cls-2" d="M172.6,135.976a14.453,14.453,0,1,0,0,26.327V135.976Z" transform="translate(-138.383 -123.64)"></path></g><path id="Path_75" data-name="Path 75" class="cls-3" d="M392.111,371.719c5.725,2.415,10.272,6.354,6.825,9.8s-7.386-1.1-9.8-6.825Z" transform="translate(-352.047 -337.367)"></path><ellipse id="Ellipse_12" data-name="Ellipse 12" class="cls-4" cx="2.541" cy="3.471" rx="2.541" ry="3.471" transform="translate(36.489 38.663) rotate(-135)"></ellipse><ellipse id="Ellipse_13" data-name="Ellipse 13" class="cls-5" cx="11.594" cy="11.594" rx="11.594" ry="11.594" transform="translate(17.356 14.62)"></ellipse><ellipse id="Ellipse_14" data-name="Ellipse 14" class="cls-6" cx="8.022" cy="8.022" rx="8.022" ry="8.022" transform="translate(20.927 18.192)"></ellipse><path id="Path_76" data-name="Path 76" class="cls-7" d="M223.829,219A8.02,8.02,0,0,1,225,206.69a8.023,8.023,0,1,0,7.1,14.228A8.022,8.022,0,0,1,223.829,219Z" transform="translate(-198.646 -188.066)"></path><path id="Path_77" data-name="Path 77" d="M176.457,77.8a.715.715,0,0,0,0-1.43H162.369a.715.715,0,0,0,0,1.43Z" transform="translate(-146.247 -70.163)"></path><path id="Path_78" data-name="Path 78" d="M212.815,437.923a.715.715,0,1,0,0-1.43H202.557a.715.715,0,1,0,0,1.43Z" transform="translate(-182.605 -395.967)"></path><path id="Path_79" data-name="Path 79" d="M214.68,209.572a8.737,8.737,0,1,0,0-12.356A8.68,8.68,0,0,0,214.68,209.572Zm6.178-13.486a7.308,7.308,0,1,1-5.167,2.14A7.26,7.26,0,0,1,220.858,196.087Z" transform="translate(-191.908 -177.18)"></path><path id="Path_80" data-name="Path 80" d="M258.931,309.452a.715.715,0,0,0,1.011-1.011l-.577-.577a.715.715,0,1,0-1.011,1.011Z" transform="translate(-233.541 -279.408)"></path><path id="Path_81" data-name="Path 81" d="M325.865,242.518a.715.715,0,0,0,1.011-1.011l-.577-.577a.715.715,0,0,0-1.011,1.011Z" transform="translate(-294.096 -218.853)"></path><path id="Path_82" data-name="Path 82" d="M289.654,274.565c.047,0,.094,0,.141,0a2.221,2.221,0,0,0,2.195-2.34.715.715,0,1,0-1.426.1.791.791,0,0,1-.813.813.715.715,0,0,0-.1,1.427Z" transform="translate(-261.444 -246.756)"></path><path id="Path_83" data-name="Path 83" d="M45.817,48.1a22.941,22.941,0,0,0-4.94-2.893,2.907,2.907,0,0,0-.77-2.474l-.013-.012A12.307,12.307,0,0,0,35.65,27.173V16.149a4.87,4.87,0,0,0-4.865-4.865H11.618a.727.727,0,0,0-.505.209L.208,22.4A.729.729,0,0,0,0,22.9V47.476a.715.715,0,0,0,1.43,0V23.617H8.9a3.44,3.44,0,0,0,3.436-3.436V12.714H30.785a3.439,3.439,0,0,1,3.435,3.435V26.371a12.2,12.2,0,0,0-4.8-1.172,11.97,11.97,0,0,0-1.389.025.715.715,0,0,0-.66.766.723.723,0,0,0,.766.66,10.9,10.9,0,0,1,6.176,1.382l.008,0a10.88,10.88,0,0,1-.349,19.113l-.028.014A11.137,11.137,0,0,1,20.376,44.2l-.016-.02a10.762,10.762,0,0,1-2.1-4.652c0-.023-.007-.045-.013-.068a10.888,10.888,0,0,1,6.791-12.111.715.715,0,0,0,.411-.924.722.722,0,0,0-.924-.411,12.219,12.219,0,0,0-4.278,2.784l-.081.083H5.389a.715.715,0,1,0,0,1.43h13.57a12.173,12.173,0,0,0-1.783,3.585H5.389a.715.715,0,1,0,0,1.43H16.833c0,.018-.007.035-.01.053a12.487,12.487,0,0,0-.1,3.533H5.389a.715.715,0,0,0,0,1.43H16.97a12.155,12.155,0,0,0,1.477,3.585H5.389a.715.715,0,1,0,0,1.43H19.472q.366.44.774.85A12.69,12.69,0,0,0,21.99,47.65a12.272,12.272,0,0,0,12.188.994l.011.011.031.03v4.38A3.439,3.439,0,0,1,30.785,56.5H4.865A3.439,3.439,0,0,1,1.43,53.066v-2.73a.715.715,0,0,0-1.43,0v2.73a4.87,4.87,0,0,0,4.865,4.865h25.92a4.871,4.871,0,0,0,4.865-4.865V49.4a3.306,3.306,0,0,0,.577.05,3.7,3.7,0,0,0,.435-.026,22.023,22.023,0,0,0,3.184,5.291c1.489,1.745,3,2.63,4.5,2.63a4.271,4.271,0,0,0,3.046-1.4,4.084,4.084,0,0,0,1.331-3.788A7.311,7.311,0,0,0,45.817,48.1ZM10.9,13.725V20.18A2.009,2.009,0,0,1,8.9,22.187H2.441Zm25.324,34.3a1.7,1.7,0,0,1-.577-.1v-.1l.025-.016a12.116,12.116,0,0,0,1.5-1.155,12.388,12.388,0,0,0,1.914-2.178c.085-.123.169-.248.249-.374a1.8,1.8,0,0,1,.107,1.021,3.453,3.453,0,0,1-1.008,1.865A3.25,3.25,0,0,1,36.227,48.023Zm10.157,6.909a2.866,2.866,0,0,1-2.036.985c-2,0-4.381-2.627-6.307-6.907q.091-.044.181-.093A5.364,5.364,0,0,0,39.6,47.845a5.208,5.208,0,0,0,.856-1.237l.009-.018c3.888,1.754,6.493,3.959,6.861,5.839A2.7,2.7,0,0,1,46.384,54.932Z" transform="translate(0 -11.284)"></path></g></svg>