<svg xmlns="http://www.w3.org/2000/svg" viewBox="1376 1806.151 52.241 44.47"><defs><style>
      .cls-1 {
        fill: #da5b65;
      }

      .cls-2 {
        fill: #c0344a;
      }

      .cls-3 {
        fill: #efedee;
      }

      .cls-4 {
        fill: #ff9ac8;
      }

      .cls-5 {
        fill: #e86fa8;
      }

      .cls-6 {
        fill: #49c3e0;
      }

      .cls-7 {
        fill: #00a5c6;
      }

      .cls-8 {
        fill: #d4d2d3;
      }
    </style></defs><g id="speaker" transform="translate(1376 1806.151)"><path id="Path_85" data-name="Path 85" class="cls-1" d="M140.009,276.336,135.787,283l4.222,5.407h2.058a3.087,3.087,0,0,0,3.087-3.087v-8.986Z" transform="translate(-121.932 -252.026)"></path><path id="Path_86" data-name="Path 86" class="cls-2" d="M150.308,280.663l1.451,1.486h1.29c1.838,0,3.55.033,5.146.093v-5.906h-5.146Z" transform="translate(-134.972 -252.027)"></path><path id="Path_87" data-name="Path 87" class="cls-3" d="M97.845,276.336l-3.438,2.752s2.334,3.766,2.564,14.876a1.806,1.806,0,0,0,1.806,1.766h2.267a1.807,1.807,0,0,0,1.807-1.807V279.088Z" transform="translate(-84.774 -252.026)"></path><path id="Path_88" data-name="Path 88" class="cls-4" d="M129.7,68.558s-3.148,6.217-28.711,6.217l-8.656,8.867,8.656,8.867c25.563,0,28.711,6.217,28.711,6.217l2.344-15.085Z" transform="translate(-82.912 -65.448)"></path><path id="Path_89" data-name="Path 89" class="cls-5" d="M129.7,209.444s-3.148-6.217-28.711-6.217L94.325,196.4l-1.992,2.041,8.656,8.867c25.563,0,28.711,6.217,28.711,6.217l2.344-15.085-.317-2.041Z" transform="translate(-82.912 -180.246)"></path><path id="Path_90" data-name="Path 90" class="cls-6" d="M460.894,45.583a2.344,2.344,0,0,0-2.344,2.344V78.1a2.344,2.344,0,1,0,4.688,0V47.927A2.344,2.344,0,0,0,460.894,45.583Z" transform="translate(-411.763 -44.818)"></path><path id="Path_91" data-name="Path 91" class="cls-7" d="M460.894,326.586a2.344,2.344,0,0,1-2.344-2.344v4.081a2.344,2.344,0,0,0,4.688,0v-4.081A2.344,2.344,0,0,1,460.894,326.586Z" transform="translate(-411.763 -295.044)"></path><path id="Path_92" data-name="Path 92" class="cls-8" d="M94.407,279.089a12.785,12.785,0,0,1,1.139,3.061h7.3v-3.061l-5.006-2.752Z" transform="translate(-84.774 -252.027)"></path><path id="Path_93" data-name="Path 93" class="cls-6" d="M16.367,129.493A8.867,8.867,0,0,0,7.5,138.36h0a8.867,8.867,0,0,0,8.867,8.867h8.444V129.493Z" transform="translate(-6.735 -120.166)"></path><path id="Path_94" data-name="Path 94" class="cls-7" d="M7.736,196.4a8.889,8.889,0,0,0-.236,2.041h0a8.867,8.867,0,0,0,8.867,8.867h8.444v-4.081H16.367A8.87,8.87,0,0,1,7.736,196.4Z" transform="translate(-6.735 -180.246)"></path><path id="Path_95" data-name="Path 95" d="M234.626,199.818a.765.765,0,0,0,.765-.765v-1.411a.765.765,0,1,0-1.531,0v1.411A.765.765,0,0,0,234.626,199.818Z" transform="translate(-209.999 -180.675)"></path><path id="Path_96" data-name="Path 96" d="M387.434,199.818a.765.765,0,0,0,.765-.765v-1.411a.765.765,0,1,0-1.531,0v1.411A.765.765,0,0,0,387.434,199.818Z" transform="translate(-347.216 -180.675)"></path><path id="Path_97" data-name="Path 97" d="M290.225,213.249a3.892,3.892,0,0,0,2.94-1.308.765.765,0,1,0-1.152-1.007,2.43,2.43,0,0,1-3.576,0,.765.765,0,1,0-1.152,1.007A3.892,3.892,0,0,0,290.225,213.249Z" transform="translate(-257.803 -193.063)"></path><path id="Path_98" data-name="Path 98" d="M9.159,65.9a26.989,26.989,0,0,1,1.88,8.012.765.765,0,1,0,1.52-.175,31.484,31.484,0,0,0-1.731-7.826h6.484v14.07a1.043,1.043,0,0,1-1.042,1.042H14A1.046,1.046,0,0,1,12.961,80c-.022-1.082-.066-2.148-.131-3.169a.765.765,0,0,0-1.528.1c.063,1,.106,2.044.128,3.1A2.584,2.584,0,0,0,14,82.552h2.267a2.575,2.575,0,0,0,2.572-2.572V75.23h1.293a3.857,3.857,0,0,0,3.852-3.852V66.036c5.969.264,12.58,1,17.393,2.793,2.865,1.065,4.239,2.213,4.652,2.773a3.109,3.109,0,0,0,6.209-.24v-22.1a.765.765,0,1,0-1.53,0v22.1a1.579,1.579,0,1,1-3.158,0V41.191a1.579,1.579,0,1,1,3.158,0V46.2a.765.765,0,0,0,1.53,0v-5.01a3.109,3.109,0,0,0-6.208-.243c-.261.339-1.307,1.474-4.293,2.639-6.472,2.526-16.44,3.056-23.663,3.056H9.633A9.633,9.633,0,0,0,9.159,65.9Zm13.3,5.48A2.324,2.324,0,0,1,20.135,73.7H18.842V65.911c1.205,0,2.411.028,3.615.066ZM42.3,45.013a15.641,15.641,0,0,0,3.726-1.974V69.514A15.642,15.642,0,0,0,42.3,67.54c-5-1.951-12.4-3.006-22.01-3.145q-.722-.01-1.444-.015V48.172C29.163,48.123,37.051,47.06,42.3,45.013ZM9.633,48.174h7.679v16.2H9.633a8.1,8.1,0,0,1,0-16.2Z" transform="translate(0 -38.082)"></path></g></svg>