<svg xmlns="http://www.w3.org/2000/svg" viewBox="499 1802.879 47.559 48.16"><defs><style>
      .cls-1 {
        fill: #ffcd38;
      }

      .cls-2 {
        fill: #ebaf03;
      }

      .cls-3 {
        fill: #ff8c57;
      }

      .cls-4 {
        fill: #ec6a34;
      }

      .cls-5 {
        fill: #b9a8ff;
      }

      .cls-6 {
        fill: #a394e0;
      }

      .cls-7 {
        fill: #ff9ac8;
      }

      .cls-8 {
        fill: #e86fa8;
      }

      .cls-9 {
        fill: #49c3e0;
      }

      .cls-10 {
        fill: #da5b65;
      }
    </style></defs><g id="_006-statistics" data-name="006-statistics" transform="translate(499 1802.879)"><path id="Path_49" data-name="Path 49" class="cls-1" d="M33.22,271.308H29.356a1.855,1.855,0,0,0-1.855,1.855v14.878l3.787,2.6,3.787-2.6V273.163A1.855,1.855,0,0,0,33.22,271.308Z" transform="translate(-25.214 -245.788)"></path><path id="Path_50" data-name="Path 50" class="cls-2" d="M30.324,288.042V273.163a1.855,1.855,0,0,1,1.855-1.855H29.357a1.855,1.855,0,0,0-1.855,1.855v14.878l3.787,2.6,1.411-.969Z" transform="translate(-25.215 -245.788)"></path><path id="Path_51" data-name="Path 51" class="cls-3" d="M158.713,230.381h-3.863a1.855,1.855,0,0,0-1.855,1.855v18.728l3.787,2.6,3.787-2.6V232.236A1.855,1.855,0,0,0,158.713,230.381Z" transform="translate(-138.903 -208.711)"></path><path id="Path_52" data-name="Path 52" class="cls-4" d="M155.816,250.965V232.236a1.855,1.855,0,0,1,1.855-1.855h-2.822a1.855,1.855,0,0,0-1.855,1.855v18.728l3.787,2.6,1.411-.969Z" transform="translate(-138.903 -208.711)"></path><path id="Path_53" data-name="Path 53" class="cls-5" d="M284.2,189.454h-3.863a1.855,1.855,0,0,0-1.855,1.855v22.578l3.787,2.6,3.787-2.6V191.309A1.856,1.856,0,0,0,284.2,189.454Z" transform="translate(-252.591 -171.634)"></path><path id="Path_54" data-name="Path 54" class="cls-6" d="M281.308,213.887V191.309a1.855,1.855,0,0,1,1.855-1.855h-2.822a1.855,1.855,0,0,0-1.855,1.855v22.578l3.787,2.6,1.411-.969Z" transform="translate(-252.591 -171.634)"></path><path id="Path_55" data-name="Path 55" class="cls-7" d="M409.7,158.757h-3.863a1.855,1.855,0,0,0-1.855,1.855v25.465l3.787,2.6,3.787-2.6V160.613A1.856,1.856,0,0,0,409.7,158.757Z" transform="translate(-366.28 -143.824)"></path><path id="Path_56" data-name="Path 56" class="cls-8" d="M406.8,186.079V160.613a1.855,1.855,0,0,1,1.855-1.855h-2.822a1.855,1.855,0,0,0-1.855,1.855v25.465l3.787,2.6,1.411-.969Z" transform="translate(-366.28 -143.825)"></path><path id="Path_57" data-name="Path 57" class="cls-9" d="M92.476,7.5,84.33,9.425,86.4,11.5,77.5,17.685l-5.068-3.8a1.444,1.444,0,0,0-2.072.36L65.3,21.913l-4.675-3.507a1.444,1.444,0,0,0-2.072.36l-5.9,8.95a1.444,1.444,0,1,0,2.41,1.589l5.058-7.67,4.675,3.507a1.444,1.444,0,0,0,2.072-.36l5.058-7.67L76.6,20.62a1.444,1.444,0,0,0,1.69.031l9.975-6.929a1.445,1.445,0,0,0,.2-.166l2.091,2.091Z" transform="translate(-47.784 -6.794)"></path><path id="Path_58" data-name="Path 58" class="cls-10" d="M55.259,449.213H12.273a1.581,1.581,0,0,0-1.581,1.581v2.039a1.581,1.581,0,0,0,1.581,1.581H55.259a1.581,1.581,0,0,0,1.581-1.581v-2.039A1.581,1.581,0,0,0,55.259,449.213Z" transform="translate(-9.986 -406.959)"></path><path id="Path_59" data-name="Path 59" d="M66.067,6.522a2.172,2.172,0,0,0-3.084.536L58.338,14.1l-4.075-3.057a2.172,2.172,0,0,0-3.084.536l-5.9,8.95A2.149,2.149,0,0,0,48.866,22.9l4.645-7.044,4.075,3.057a2.171,2.171,0,0,0,3.084-.536l4.645-7.044,4.075,3.057a2.167,2.167,0,0,0,2.516.046l9.7-6.741,1.657,1.657a.712.712,0,0,0,1.185-.337L86.377.865a.713.713,0,0,0-.849-.849L77.381,1.941a.712.712,0,0,0-.337,1.185L78.522,4.6l-7.794,5.414ZM80.02,5.281a.712.712,0,0,0,.1-1.078L78.937,3.024l5.8-1.371-1.371,5.8-1.2-1.2a.705.705,0,0,0-1,0c-.035.035-10.057,7-10.076,7.015a.742.742,0,0,1-.864-.016L65.562,9.753a.711.711,0,0,0-1.012.176L59.492,17.6a.749.749,0,0,1-1.059.184l-4.675-3.507a.711.711,0,0,0-1.012.176l-5.058,7.67a.738.738,0,1,1-1.232-.813l5.9-8.951a.746.746,0,0,1,1.059-.184l4.675,3.507a.711.711,0,0,0,1.012-.176l5.058-7.67a.745.745,0,0,1,1.059-.184l5.068,3.8a.705.705,0,0,0,.826.015Z" transform="translate(-40.998 0.002)"></path><path id="Path_60" data-name="Path 60" d="M49.169,178.688V160.536a.705.705,0,0,0-1.411,0v18.041H41.595v-24.76a1.151,1.151,0,0,1,1.15-1.15h3.863a1.151,1.151,0,0,1,1.15,1.15v3.9a.705.705,0,1,0,1.411,0v-3.9a2.564,2.564,0,0,0-2.561-2.561H42.745a2.564,2.564,0,0,0-2.561,2.561v24.76H37.365V156.7a2.564,2.564,0,0,0-2.561-2.561H30.941A2.564,2.564,0,0,0,28.38,156.7v21.872H25.561V160.554A2.564,2.564,0,0,0,23,157.993H19.137a2.564,2.564,0,0,0-2.561,2.561V171.31a.705.705,0,0,0,1.411,0V160.554a1.151,1.151,0,0,1,1.15-1.15H23a1.151,1.151,0,0,1,1.15,1.15v18.023H17.987v-4.454a.705.705,0,0,0-1.411,0v4.454H13.758V164.4a2.564,2.564,0,0,0-2.561-2.561H7.333A2.564,2.564,0,0,0,4.772,164.4v14.285a2.29,2.29,0,0,0-1.581,2.175V182.9a2.289,2.289,0,0,0,2.287,2.287H48.464A2.289,2.289,0,0,0,50.75,182.9v-2.039A2.29,2.29,0,0,0,49.169,178.688ZM29.791,156.7a1.151,1.151,0,0,1,1.15-1.15H34.8a1.151,1.151,0,0,1,1.15,1.15v21.872H29.791V156.7ZM6.183,164.4a1.151,1.151,0,0,1,1.15-1.15H11.2a1.151,1.151,0,0,1,1.15,1.15v14.173H6.183Zm42.281,15.584a.877.877,0,0,1,.876.876V182.9a.877.877,0,0,1-.876.876H5.478A.877.877,0,0,1,4.6,182.9v-2.039a.877.877,0,0,1,.876-.876Z" transform="translate(-3.191 -137.028)"></path></g></svg>