<svg xmlns="http://www.w3.org/2000/svg" viewBox="934 1499.666 53.011 41.353"><defs><style>
      .cls-1 {
        fill: #2c733f;
      }

      .cls-2 {
        fill: #317f46;
      }

      .cls-3 {
        fill: #4cba68;
      }

      .cls-4 {
        fill: #b3d8f4;
      }

      .cls-5 {
        fill: #d1e7f8;
      }

      .cls-6 {
        fill: #ffa733;
      }

      .cls-7 {
        fill: #ee8700;
      }

      .cls-8 {
        fill: #ff0c38;
      }

      .cls-9 {
        fill: #3d9ae2;
      }

      .cls-10 {
        fill: #5aaae7;
      }

      .cls-11 {
        fill: #3fa45a;
      }
    </style></defs><g id="_005-payment" data-name="005-payment" transform="translate(934 1499.666)"><path id="Path_26" data-name="Path 26" class="cls-1" d="M58.986,66.511v34.437a2.678,2.678,0,0,1-2.678,2.678H10.214a2.678,2.678,0,0,1-2.678-2.678V66.511a2.678,2.678,0,0,1,2.678-2.678h46.1A2.678,2.678,0,0,1,58.986,66.511Z" transform="translate(-6.756 -63.053)"></path><path id="Path_27" data-name="Path 27" class="cls-2" d="M88.739,66.511v34.437a2.678,2.678,0,0,1-2.678,2.678H43.4a2.678,2.678,0,0,1-2.678-2.678V66.511A2.678,2.678,0,0,1,43.4,63.833H86.061A2.678,2.678,0,0,1,88.739,66.511Z" transform="translate(-36.508 -63.053)"></path><path id="Path_28" data-name="Path 28" class="cls-3" d="M58.987,66.511v3.938H7.537V66.511a2.678,2.678,0,0,1,2.678-2.678h46.1A2.678,2.678,0,0,1,58.987,66.511Z" transform="translate(-6.757 -63.053)"></path><path id="Path_29" data-name="Path 29" class="cls-4" d="M70.51,168.944v14.5a2.255,2.255,0,0,1-2.254,2.254H44.115a2.255,2.255,0,0,1-2.254-2.254v-14.5a2.254,2.254,0,0,1,2.254-2.253h24.14A2.254,2.254,0,0,1,70.51,168.944Z" transform="translate(-37.527 -155.261)"></path><path id="Path_30" data-name="Path 30" class="cls-5" d="M96.552,168.944v14.5A2.255,2.255,0,0,1,94.3,185.7H73.165a2.255,2.255,0,0,1-2.254-2.254v-14.5a2.254,2.254,0,0,1,2.254-2.253H94.3A2.254,2.254,0,0,1,96.552,168.944Z" transform="translate(-63.569 -155.261)"></path><path id="Path_31" data-name="Path 31" class="cls-6" d="M86.157,194.931v2.486a1.382,1.382,0,0,1-1.382,1.382H79.832a1.382,1.382,0,0,1-1.382-1.382v-2.486a1.382,1.382,0,0,1,1.382-1.382h4.943A1.382,1.382,0,0,1,86.157,194.931Z" transform="translate(-70.328 -179.339)"></path><path id="Path_32" data-name="Path 32" class="cls-7" d="M107.1,195.3v1.561H103.37V198.8h-1.561v-5.25h1.561V195.3Z" transform="translate(-91.268 -179.339)"></path><ellipse id="Ellipse_9" data-name="Ellipse 9" class="cls-8" cx="2.454" cy="2.454" rx="2.454" ry="2.454" transform="translate(20.961 14.613)"></ellipse><ellipse id="Ellipse_10" data-name="Ellipse 10" class="cls-9" cx="2.454" cy="2.454" rx="2.454" ry="2.454" transform="translate(23.924 14.613)"></ellipse><ellipse id="Ellipse_11" data-name="Ellipse 11" class="cls-10" cx="8.745" cy="8.745" rx="8.745" ry="8.745" transform="translate(31.187 19.188)"></ellipse><path id="Path_33" data-name="Path 33" class="cls-4" d="M342.858,277.682a5.586,5.586,0,1,1-4.446-5.473A5.592,5.592,0,0,1,342.858,277.682Z" transform="translate(-297.336 -249.748)"></path><path id="Path_34" data-name="Path 34" class="cls-5" d="M362.683,278.7a4.542,4.542,0,1,1-4.446-5.473A5.592,5.592,0,0,1,362.683,278.7Z" transform="translate(-317.16 -250.767)"></path><path id="Path_35" data-name="Path 35" class="cls-11" d="M13.651,63.834a2.678,2.678,0,0,0-2.678,2.678V70.45H7.537V66.512a2.678,2.678,0,0,1,2.678-2.678Z" transform="translate(-6.757 -63.054)"></path><path id="Path_36" data-name="Path 36" d="M49.553,56.3H3.458A3.462,3.462,0,0,0,0,59.757V94.194a3.462,3.462,0,0,0,3.458,3.458H31.306a.781.781,0,1,0,0-1.561H3.458a1.9,1.9,0,0,1-1.9-1.9V64.476H51.45V94.194a1.9,1.9,0,0,1-1.9,1.9H34.429a.781.781,0,1,0,0,1.561H49.553a3.462,3.462,0,0,0,3.458-3.458V59.757A3.462,3.462,0,0,0,49.553,56.3Zm1.9,6.616H1.561V59.757a1.9,1.9,0,0,1,1.9-1.9H49.553a1.9,1.9,0,0,1,1.9,1.9v3.157h0Z" transform="translate(0 -56.299)"></path><path id="Path_37" data-name="Path 37" d="M79.17,90.334h-37.1a.781.781,0,1,0,0,1.561h37.1a.781.781,0,0,0,0-1.561Z" transform="translate(-37.011 -86.81)"></path><path id="Path_38" data-name="Path 38" d="M450.111,79.89a.781.781,0,0,0-1.1-.067l-.708.627-.708-.627a.781.781,0,0,0-1.035,1.169l.565.5-.565.5a.781.781,0,1,0,1.035,1.169l.708-.627.708.627a.781.781,0,1,0,1.035-1.169l-.565-.5.565-.5A.781.781,0,0,0,450.111,79.89Z" transform="translate(-400.087 -77.211)"></path><path id="Path_39" data-name="Path 39" d="M61.5,159.152H37.358a3.038,3.038,0,0,0-3.035,3.034v14.5a3.038,3.038,0,0,0,3.035,3.035c25.692,0,24.142.01,24.4-.012a9.525,9.525,0,1,0,2.777-10.527v-7A3.038,3.038,0,0,0,61.5,159.152Zm-.165,19.011H37.358a1.476,1.476,0,0,1-1.474-1.474v-14.5a1.476,1.476,0,0,1,1.474-1.473H61.5a1.475,1.475,0,0,1,1.474,1.473v8.691A9.5,9.5,0,0,0,61.334,178.163Zm9.367-9.69a7.985,7.985,0,1,1-6.168,2.934A7.973,7.973,0,0,1,70.7,168.473Z" transform="translate(-30.769 -148.503)"></path><path id="Path_40" data-name="Path 40" d="M184.269,276.251h2.706a.781.781,0,1,0,0-1.561h-2.706a.781.781,0,1,0,0,1.561Z" transform="translate(-164.49 -252.078)"></path><path id="Path_41" data-name="Path 41" d="M71.692,276.251H74.4a.781.781,0,1,0,0-1.561H71.692a.781.781,0,1,0,0,1.561Z" transform="translate(-63.569 -252.078)"></path><path id="Path_42" data-name="Path 42" d="M127.2,275.471a.781.781,0,0,0,.781.781h2.706a.781.781,0,1,0,0-1.561h-2.706A.781.781,0,0,0,127.2,275.471Z" transform="translate(-114.03 -252.078)"></path><path id="Path_43" data-name="Path 43" d="M243.263,274.691h-2.706a.781.781,0,1,0,0,1.561h2.706a.781.781,0,0,0,0-1.561Z" transform="translate(-214.951 -252.079)"></path><path id="Path_44" data-name="Path 44" d="M87.106,310.007H71.692a.781.781,0,1,0,0,1.561H87.106a.781.781,0,0,0,0-1.561Z" transform="translate(-63.569 -283.739)"></path><path id="Path_45" data-name="Path 45" d="M73.074,192.824h4.944a2.164,2.164,0,0,0,2.162-2.162v-2.487a2.165,2.165,0,0,0-2.162-2.162H73.074a2.165,2.165,0,0,0-2.162,2.162v2.487A2.164,2.164,0,0,0,73.074,192.824Zm2.6-5.25h2.346a.6.6,0,0,1,.6.6v.373H75.672Zm0,2.535h2.947v.553a.6.6,0,0,1-.6.6H75.672Zm-3.2-1.934a.6.6,0,0,1,.6-.6h1.037v3.689H73.074a.6.6,0,0,1-.6-.6Z" transform="translate(-63.57 -172.583)"></path><path id="Path_46" data-name="Path 46" d="M199.621,190.254a3.233,3.233,0,1,0,0,5.747,3.233,3.233,0,1,0,0-5.747Zm-1.482,4.547a1.673,1.673,0,1,1,.189-3.335,3.226,3.226,0,0,0,0,3.324A1.679,1.679,0,0,1,198.139,194.8Zm1.482-.9a2.161,2.161,0,0,1,0-1.551A1.663,1.663,0,0,1,199.621,193.9Zm1.292.886a3.226,3.226,0,0,0,0-3.324,1.673,1.673,0,1,1,0,3.324Z" transform="translate(-174.725 -176.061)"></path><path id="Path_47" data-name="Path 47" d="M330.51,277.384a6.372,6.372,0,0,0,3.043-11.97.781.781,0,1,0-.747,1.371,4.811,4.811,0,1,1-2.588-.574.781.781,0,0,0-.093-1.558,6.371,6.371,0,0,0,.384,12.731Z" transform="translate(-290.579 -243.08)"></path><path id="Path_48" data-name="Path 48" d="M348.291,301.015a.781.781,0,0,0-1.075,1.132l1.4,1.333a1.411,1.411,0,0,0,2.07-.138l3.457-4.287a.781.781,0,0,0-1.215-.98l-3.355,4.161Z" transform="translate(-311.049 -272.782)"></path></g></svg>