<svg xmlns="http://www.w3.org/2000/svg" viewBox="499 1496.636 47.221 47.227"><defs><style>
      .cls-1 {
        fill: #a19fa0;
      }

      .cls-2 {
        fill: #8c8b8b;
      }

      .cls-3 {
        fill: #da5b65;
      }

      .cls-4 {
        fill: #c0344a;
      }

      .cls-5 {
        fill: #bab8b9;
      }
    </style></defs><g id="_008-repair" data-name="008-repair" transform="translate(499 1496.636)"><path id="Path_66" data-name="Path 66" class="cls-1" d="M218.62,216.14l-18.588-18.588-2.478,2.478,18.588,18.588a.919.919,0,0,0,0,1.3l4.043,4.043a1.412,1.412,0,0,0,2,0l1.78-1.78a1.412,1.412,0,0,0,0-2l-4.043-4.043A.918.918,0,0,0,218.62,216.14Z" transform="translate(-179.333 -179.33)"></path><path id="Path_67" data-name="Path 67" class="cls-2" d="M223.486,234.211a1.412,1.412,0,0,1-2,0l-4.043-4.043a.918.918,0,0,1,0-1.3L198.857,210.28l-1.3,1.3,18.588,18.588a.918.918,0,0,0,0,1.3l4.043,4.043a1.412,1.412,0,0,0,2,0l1.78-1.78h0Z" transform="translate(-179.333 -190.884)"></path><path id="Path_68" data-name="Path 68" class="cls-3" d="M27.192,24.635l-2.557,2.557a3.356,3.356,0,0,0,0,4.747l16.6,16.6a1.742,1.742,0,0,0,2.464,0L48.536,43.7a1.742,1.742,0,0,0,0-2.464l-16.6-16.6A3.356,3.356,0,0,0,27.192,24.635Z" transform="translate(-21.473 -21.47)"></path><path id="Path_69" data-name="Path 69" class="cls-4" d="M43.842,55.351l-16.6-16.6a3.356,3.356,0,0,1-.025-4.72l-.027.025-2.557,2.557a3.356,3.356,0,0,0,0,4.747l16.6,16.6a1.742,1.742,0,0,0,2.464,0l2.609-2.609A1.742,1.742,0,0,1,43.842,55.351Z" transform="translate(-21.473 -30.895)"></path><path id="Path_70" data-name="Path 70" class="cls-5" d="M25.391,41.306,41.307,25.389A9.174,9.174,0,0,0,52.768,13.469l-5.9,5.9-5.392-5.392,5.9-5.9a9.175,9.175,0,0,0-12.03,11.1L19.182,35.344a9.175,9.175,0,0,0-11.1,12.03l5.9-5.9,5.392,5.392-5.9,5.9A9.174,9.174,0,0,0,25.391,41.306Z" transform="translate(-6.812 -6.808)"></path><path id="Path_71" data-name="Path 71" d="M9.888,27.5A9.865,9.865,0,0,0,.645,40.807a.7.7,0,0,0,1.138.248l5.412-5.412,4.414,4.414L6.2,45.469a.7.7,0,0,0,.248,1.138A9.866,9.866,0,0,0,19.389,34.693l5.936-5.936L35.967,39.4a1.615,1.615,0,0,0,.379,1.678l4.043,4.043a2.1,2.1,0,0,0,2.975,0l1.78-1.78a2.1,2.1,0,0,0,0-2.975L41.1,36.322a1.612,1.612,0,0,0-1.678-.379l-2.849-2.849a.692.692,0,0,0-.978.978L38.825,37.3a.692.692,0,0,0,.978,0,.227.227,0,0,1,.321,0l4.043,4.043a.72.72,0,0,1,0,1.019l-1.78,1.78a.72.72,0,0,1-1.019,0L37.325,40.1a.229.229,0,0,1,0-.32.692.692,0,0,0,0-.978L26.3,27.779l1.5-1.5,5.837,5.837a.692.692,0,0,0,.978-.978L28.782,25.3l5.936-5.936A9.866,9.866,0,0,0,46.632,6.419a.692.692,0,0,0-1.137-.248l-5.412,5.412L35.669,7.169l5.412-5.412A.692.692,0,0,0,40.833.62,9.866,9.866,0,0,0,27.792,12.164l-3.66,3.66L10.983,2.675a4.053,4.053,0,0,0-5.725,0L2.7,5.232a4.053,4.053,0,0,0,0,5.725l4.12,4.12A.692.692,0,1,0,7.8,14.1l-4.12-4.12a2.668,2.668,0,0,1,0-3.768L6.236,3.654a2.668,2.668,0,0,1,3.768,0L23.153,16.8l-6.325,6.325L9.756,16.056a.692.692,0,1,0-.978.978l7.072,7.072-3.66,3.66A9.908,9.908,0,0,0,9.888,27.5Zm3,1.529L29.05,12.862a.692.692,0,0,0,.176-.678A8.486,8.486,0,0,1,39.284,1.6L34.2,6.68a.692.692,0,0,0,0,.978l5.392,5.392a.692.692,0,0,0,.978,0l5.082-5.082a8.512,8.512,0,0,1-2.269,7.9,8.494,8.494,0,0,1-8.647,2.06.692.692,0,0,0-.7.168L18.117,34.008a.692.692,0,0,0-.168.7,8.48,8.48,0,0,1-8.055,11.13h0a8.505,8.505,0,0,1-1.9-.214l5.082-5.082a.692.692,0,0,0,0-.978L7.684,34.176a.692.692,0,0,0-.978,0L1.623,39.258a8.512,8.512,0,0,1,2.269-7.9,8.424,8.424,0,0,1,6-2.483,8.523,8.523,0,0,1,2.322.322A.692.692,0,0,0,12.888,29.025Z" transform="translate(-0.028 0)"></path></g></svg>