<svg xmlns="http://www.w3.org/2000/svg" viewBox="934 1802.122 51.481 50.674"><defs><style>
      .cls-1 {
        fill: #e6e6e6;
      }

      .cls-2 {
        fill: #3a5bbc;
      }

      .cls-3 {
        fill: #518ef8;
      }

      .cls-4 {
        fill: #fff;
      }

      .cls-5 {
        fill: #333;
      }
    </style></defs><g id="_003-logo" data-name="003-logo" transform="translate(934 1802.122)"><g id="Group_17" data-name="Group 17" transform="translate(26.392 9.879)"><path id="Path_18" data-name="Path 18" class="cls-1" d="M313.367,242.9a31,31,0,0,1-3.1,3.67L306.3,234.611h11.744A43.47,43.47,0,0,1,313.367,242.9Z" transform="translate(-301.899 -221.304)"></path><path id="Path_19" data-name="Path 19" class="cls-1" d="M273.952,123.862a43.462,43.462,0,0,0,4.682-8.289H266.89l-4.406-13.307h20.9a3.182,3.182,0,0,1,3.182,3.182v33.423a3.182,3.182,0,0,1-3.182,3.182h-19l8.334-8.871-1.871-5.649A31,31,0,0,0,273.952,123.862Z" transform="translate(-262.484 -102.266)"></path></g><path id="Path_20" data-name="Path 20" class="cls-2" d="M263.328,409.734l-8.334,8.871-2.952-8.871Z" transform="translate(-226.701 -368.939)"></path><path id="Path_21" data-name="Path 21" class="cls-3" d="M43.776,48.174l1.871,5.649H13.209a3.181,3.181,0,0,1-3.182-3.182V17.219a3.181,3.181,0,0,1,3.182-3.182H32.474l2.937,8.871,4.406,13.307Z" transform="translate(-9.019 -13.029)"></path><path id="Path_22" data-name="Path 22" class="cls-4" d="M86.447,152.078a7.494,7.494,0,1,1,5.3-12.793,1.008,1.008,0,0,1-1.425,1.427,5.477,5.477,0,1,0,1.511,4.881H86.447a1.008,1.008,0,0,1,0-2.016h6.485a1.008,1.008,0,0,1,1.008,1.008A7.5,7.5,0,0,1,86.447,152.078Z" transform="translate(-71.014 -123.71)"></path><path id="Path_23" data-name="Path 23" class="cls-5" d="M47.291,12.881H27.121L24.412,4.7a1.008,1.008,0,0,0-.957-.691H4.19A4.2,4.2,0,0,0,0,8.2V41.623a4.194,4.194,0,0,0,4.19,4.19H24.616l2.722,8.182a1.008,1.008,0,0,0,.957.69h19a4.2,4.2,0,0,0,4.19-4.19V17.071A4.2,4.2,0,0,0,47.291,12.881ZM2.016,41.623V8.2A2.176,2.176,0,0,1,4.19,6.026H22.727L33.79,39.44l0,.011L35.232,43.8H4.19A2.176,2.176,0,0,1,2.016,41.623ZM40.986,28.2A44.438,44.438,0,0,1,37.8,33.811c-1.365-1.7-2.228-2.892-2.238-2.906A1.008,1.008,0,0,0,33.93,32.09c.046.064,1.055,1.452,2.652,3.424-.461.605-.929,1.179-1.4,1.715L32.194,28.2h8.792ZM26.74,45.813H34.3l-5.581,5.941Zm22.724,4.682a2.176,2.176,0,0,1-2.173,2.173H30.624l6.738-7.173h0a.993.993,0,0,0,.083-.1,1.008,1.008,0,0,0,.14-.907L35.907,39.42q1.009-1.058,1.992-2.312c1.583,1.879,3.128,3.575,4.6,5.05a1.008,1.008,0,0,0,1.426-1.426c-1.53-1.53-3.142-3.31-4.8-5.294A45.393,45.393,0,0,0,43.207,28.2h2.157a1.008,1.008,0,1,0,0-2.016H38.711V24.374a1.008,1.008,0,0,0-2.016,0v1.815H31.526L27.788,14.9h19.5a2.176,2.176,0,0,1,2.173,2.173V50.495Z" transform="translate(0 -4.01)"></path></g></svg>