<svg xmlns="http://www.w3.org/2000/svg" viewBox="499 5158.771 48.51 38.893"><defs><style>
      .cls-1 {
        fill: #9b8ccc;
      }

      .cls-2 {
        fill: #94e7ef;
      }

      .cls-3 {
        fill: #193651;
      }
    </style></defs><g id="MESSAGING" transform="translate(499 5158.771)"><path id="Path_191" data-name="Path 191" class="cls-1" d="M57.584,75.353V86.619H44.868a2.734,2.734,0,0,0-2.732,2.732v5.968c-1.7,0-5.93,0-5.947,0a1.132,1.132,0,0,0-.731.331L29,102.113s0-5.722-.006-5.752a1.146,1.146,0,0,0-1.14-1.042H24.6a.442.442,0,0,1-.443-.443V75.353a.443.443,0,0,1,.443-.443H57.141A.443.443,0,0,1,57.584,75.353Zm-5.155,5.979a1.144,1.144,0,0,0-1.144-1.144H30.457a1.144,1.144,0,1,0,0,2.289H51.284A1.145,1.145,0,0,0,52.429,81.332ZM39.505,88.9a1.145,1.145,0,0,0-1.144-1.144h-7.9a1.144,1.144,0,1,0,0,2.289h7.9A1.145,1.145,0,0,0,39.505,88.9Z" transform="translate(-21.868 -72.621)"></path><path id="Path_192" data-name="Path 192" class="cls-2" d="M261.74,223.095v13.318a.443.443,0,0,1-.443.443h-1.931a1.144,1.144,0,0,0-1.14,1.056c0,.025,0,3.439,0,3.439l-4.155-4.155-.013-.013-.047-.042a1.135,1.135,0,0,0-.753-.285H238.519a.444.444,0,0,1-.443-.443V223.095a.443.443,0,0,1,.443-.443H261.3A.442.442,0,0,1,261.74,223.095Zm-5.37,6.659a1.144,1.144,0,1,0-1.144,1.144A1.145,1.145,0,0,0,256.37,229.754Zm-5.317,0a1.144,1.144,0,1,0-1.144,1.144A1.145,1.145,0,0,0,251.053,229.754Zm-5.318,0a1.144,1.144,0,1,0-1.144,1.144A1.145,1.145,0,0,0,245.735,229.754Z" transform="translate(-215.519 -206.365)"></path><g id="Group_114" data-name="Group 114" transform="translate(0 0)"><path id="Path_193" data-name="Path 193" class="cls-3" d="M408.148,285.531A1.144,1.144,0,1,1,407,286.675,1.145,1.145,0,0,1,408.148,285.531Z" transform="translate(-368.442 -263.287)"></path><path id="Path_194" data-name="Path 194" class="cls-3" d="M20.268,75.739h-5.4L6.8,83.817a1.147,1.147,0,0,1-.81.335,1.13,1.13,0,0,1-.437-.088,1.142,1.142,0,0,1-.706-1.056V75.739H2.732A2.734,2.734,0,0,1,0,73.007V53.485a2.734,2.734,0,0,1,2.732-2.732H35.273A2.735,2.735,0,0,1,38,53.485V64.751h7.774a2.734,2.734,0,0,1,2.732,2.732V80.8a2.734,2.734,0,0,1-2.732,2.732h-.786V88.5a1.144,1.144,0,0,1-1.953.809l-5.778-5.778H23A2.735,2.735,0,0,1,20.268,80.8ZM35.716,64.751V53.485a.443.443,0,0,0-.443-.443H2.732a.443.443,0,0,0-.443.443V73.007a.442.442,0,0,0,.443.443H5.985a1.146,1.146,0,0,1,1.14,1.042c0,.03.006,5.752.006,5.752l6.459-6.459a1.133,1.133,0,0,1,.731-.331c.017,0,4.251,0,5.947,0V67.482A2.734,2.734,0,0,1,23,64.751ZM46.221,80.8V67.482a.442.442,0,0,0-.443-.443H23a.443.443,0,0,0-.443.443V80.8a.444.444,0,0,0,.443.443H37.736a1.135,1.135,0,0,1,.753.285l.047.042.013.013L42.7,85.738s0-3.414,0-3.439a1.144,1.144,0,0,1,1.14-1.056h1.931A.443.443,0,0,0,46.221,80.8Z" transform="translate(0 -50.753)"></path><path id="Path_195" data-name="Path 195" class="cls-3" d="M352.032,285.531a1.144,1.144,0,1,1-1.144,1.144A1.145,1.145,0,0,1,352.032,285.531Z" transform="translate(-317.643 -263.287)"></path><path id="Path_196" data-name="Path 196" class="cls-3" d="M100.542,130.615a1.144,1.144,0,1,1,0,2.289H79.714a1.144,1.144,0,1,1,0-2.289Z" transform="translate(-71.126 -123.048)"></path><path id="Path_197" data-name="Path 197" class="cls-3" d="M295.9,285.531a1.144,1.144,0,1,1-1.144,1.144A1.145,1.145,0,0,1,295.9,285.531Z" transform="translate(-266.833 -263.287)"></path><path id="Path_198" data-name="Path 198" class="cls-3" d="M87.619,210.465a1.144,1.144,0,1,1,0,2.289h-7.9a1.144,1.144,0,1,1,0-2.289Z" transform="translate(-71.126 -195.333)"></path></g></g></svg>